%TF.GenerationSoftware,KiCad,Pcbnew,(5.1.10)-1*%
%TF.CreationDate,2021-12-23T09:49:10-08:00*%
%TF.ProjectId,ats-remote,6174732d-7265-46d6-9f74-652e6b696361,rev?*%
%TF.SameCoordinates,Original*%
%TF.FileFunction,Soldermask,Top*%
%TF.FilePolarity,Negative*%
%FSLAX46Y46*%
G04 Gerber Fmt 4.6, Leading zero omitted, Abs format (unit mm)*
G04 Created by KiCad (PCBNEW (5.1.10)-1) date 2021-12-23 09:49:10*
%MOMM*%
%LPD*%
G01*
G04 APERTURE LIST*
%ADD10R,1.800000X0.700000*%
%ADD11R,1.550000X0.600000*%
%ADD12R,2.000000X1.000000*%
%ADD13O,1.000000X1.000000*%
%ADD14R,1.000000X1.000000*%
G04 APERTURE END LIST*
D10*
%TO.C,GPS*%
X162130000Y-119970000D03*
X162130000Y-118870000D03*
X162130000Y-117770000D03*
X162130000Y-116670000D03*
X162130000Y-115570000D03*
X162130000Y-114470000D03*
X162130000Y-113370000D03*
X162130000Y-112270000D03*
X162130000Y-111170000D03*
X152830000Y-119970000D03*
X152830000Y-118870000D03*
X152830000Y-117770000D03*
X152830000Y-116670000D03*
X152830000Y-115570000D03*
X152830000Y-114470000D03*
X152830000Y-113370000D03*
X152830000Y-112270000D03*
X152830000Y-111170000D03*
%TD*%
D11*
%TO.C,uC*%
X154780000Y-106680000D03*
X160180000Y-106680000D03*
X154780000Y-105410000D03*
X160180000Y-105410000D03*
X154780000Y-104140000D03*
X160180000Y-104140000D03*
X154780000Y-102870000D03*
X160180000Y-102870000D03*
X154780000Y-101600000D03*
X160180000Y-101600000D03*
X154780000Y-100330000D03*
X160180000Y-100330000D03*
X154780000Y-99060000D03*
X160180000Y-99060000D03*
%TD*%
D12*
%TO.C,LORA*%
X165480000Y-79360000D03*
X165480000Y-81360000D03*
X165480000Y-83360000D03*
X165480000Y-85360000D03*
X165480000Y-87360000D03*
X165480000Y-89360000D03*
X165480000Y-91360000D03*
X165480000Y-93360000D03*
X149480000Y-93360000D03*
X149480000Y-91360000D03*
X149480000Y-89360000D03*
X149480000Y-87360000D03*
X149480000Y-85360000D03*
X149480000Y-83360000D03*
X149480000Y-81360000D03*
X149480000Y-79360000D03*
%TD*%
D13*
%TO.C,J6*%
X172720000Y-110490000D03*
X172720000Y-111760000D03*
X172720000Y-113030000D03*
X172720000Y-114300000D03*
X172720000Y-115570000D03*
X172720000Y-116840000D03*
X172720000Y-118110000D03*
X172720000Y-119380000D03*
D14*
X172720000Y-120650000D03*
%TD*%
D13*
%TO.C,J5*%
X142240000Y-120650000D03*
X142240000Y-119380000D03*
X142240000Y-118110000D03*
X142240000Y-116840000D03*
X142240000Y-115570000D03*
X142240000Y-114300000D03*
X142240000Y-113030000D03*
X142240000Y-111760000D03*
D14*
X142240000Y-110490000D03*
%TD*%
D13*
%TO.C,J4*%
X172720000Y-99060000D03*
X172720000Y-100330000D03*
X172720000Y-101600000D03*
X172720000Y-102870000D03*
X172720000Y-104140000D03*
X172720000Y-105410000D03*
D14*
X172720000Y-106680000D03*
%TD*%
D13*
%TO.C,J3*%
X142240000Y-106680000D03*
X142240000Y-105410000D03*
X142240000Y-104140000D03*
X142240000Y-102870000D03*
X142240000Y-101600000D03*
X142240000Y-100330000D03*
D14*
X142240000Y-99060000D03*
%TD*%
D13*
%TO.C,J2*%
X172720000Y-82550000D03*
X172720000Y-83820000D03*
X172720000Y-85090000D03*
X172720000Y-86360000D03*
X172720000Y-87630000D03*
X172720000Y-88900000D03*
X172720000Y-90170000D03*
D14*
X172720000Y-91440000D03*
%TD*%
D13*
%TO.C,J1*%
X142240000Y-91440000D03*
X142240000Y-90170000D03*
X142240000Y-88900000D03*
X142240000Y-87630000D03*
X142240000Y-86360000D03*
X142240000Y-85090000D03*
X142240000Y-83820000D03*
D14*
X142240000Y-82550000D03*
%TD*%
M02*
