M48
; DRILL file {KiCad (5.1.10)-1} date 12/23/21 11:07:00
; FORMAT={-:-/ absolute / metric / decimal}
; #@! TF.CreationDate,2021-12-23T11:07:00-08:00
; #@! TF.GenerationSoftware,Kicad,Pcbnew,(5.1.10)-1
; #@! TF.FileFunction,Plated,1,2,PTH
FMAT,2
METRIC
T1C0.700
T2C1.100
%
G90
G05
T1
X142.24Y-82.55
X142.24Y-83.82
X142.24Y-85.09
X142.24Y-86.36
X142.24Y-87.63
X142.24Y-88.9
X142.24Y-90.17
X142.24Y-91.44
X142.24Y-99.06
X142.24Y-100.33
X142.24Y-101.6
X142.24Y-102.87
X142.24Y-104.14
X142.24Y-105.41
X142.24Y-106.68
X142.24Y-110.49
X142.24Y-111.76
X142.24Y-113.03
X142.24Y-114.3
X142.24Y-115.57
X142.24Y-116.84
X142.24Y-118.11
X142.24Y-119.38
X142.24Y-120.65
X172.72Y-82.55
X172.72Y-83.82
X172.72Y-85.09
X172.72Y-86.36
X172.72Y-87.63
X172.72Y-88.9
X172.72Y-90.17
X172.72Y-91.44
X172.72Y-99.06
X172.72Y-100.33
X172.72Y-101.6
X172.72Y-102.87
X172.72Y-104.14
X172.72Y-105.41
X172.72Y-106.68
X172.72Y-110.49
X172.72Y-111.76
X172.72Y-113.03
X172.72Y-114.3
X172.72Y-115.57
X172.72Y-116.84
X172.72Y-118.11
X172.72Y-119.38
X172.72Y-120.65
T2
X170.18Y-95.25
T0
M30
