%TF.GenerationSoftware,KiCad,Pcbnew,(5.1.10)-1*%
%TF.CreationDate,2021-12-23T09:49:10-08:00*%
%TF.ProjectId,ats-remote,6174732d-7265-46d6-9f74-652e6b696361,rev?*%
%TF.SameCoordinates,Original*%
%TF.FileFunction,Copper,L1,Top*%
%TF.FilePolarity,Positive*%
%FSLAX46Y46*%
G04 Gerber Fmt 4.6, Leading zero omitted, Abs format (unit mm)*
G04 Created by KiCad (PCBNEW (5.1.10)-1) date 2021-12-23 09:49:10*
%MOMM*%
%LPD*%
G01*
G04 APERTURE LIST*
%TA.AperFunction,SMDPad,CuDef*%
%ADD10R,1.800000X0.700000*%
%TD*%
%TA.AperFunction,SMDPad,CuDef*%
%ADD11R,1.550000X0.600000*%
%TD*%
%TA.AperFunction,SMDPad,CuDef*%
%ADD12R,2.000000X1.000000*%
%TD*%
%TA.AperFunction,ComponentPad*%
%ADD13O,1.000000X1.000000*%
%TD*%
%TA.AperFunction,ComponentPad*%
%ADD14R,1.000000X1.000000*%
%TD*%
%TA.AperFunction,ViaPad*%
%ADD15C,2.000000*%
%TD*%
%TA.AperFunction,Conductor*%
%ADD16C,1.000000*%
%TD*%
%TA.AperFunction,Conductor*%
%ADD17C,0.600000*%
%TD*%
G04 APERTURE END LIST*
D10*
%TO.P,GPS,10*%
%TO.N,YIC_GND_2*%
X162130000Y-119970000D03*
%TO.P,GPS,11*%
%TO.N,YIC_RF_IN*%
X162130000Y-118870000D03*
%TO.P,GPS,12*%
%TO.N,YIC_GND_3*%
X162130000Y-117770000D03*
%TO.P,GPS,13*%
%TO.N,Net-(U3-Pad13)*%
X162130000Y-116670000D03*
%TO.P,GPS,14*%
%TO.N,YIC_VCC_RF*%
X162130000Y-115570000D03*
%TO.P,GPS,15*%
%TO.N,YIC_GND_4*%
X162130000Y-114470000D03*
%TO.P,GPS,16*%
%TO.N,Net-(U3-Pad16)*%
X162130000Y-113370000D03*
%TO.P,GPS,17*%
%TO.N,Net-(U3-Pad17)*%
X162130000Y-112270000D03*
%TO.P,GPS,18*%
%TO.N,YIC_GND_5*%
X162130000Y-111170000D03*
%TO.P,GPS,9*%
%TO.N,Net-(U3-Pad9)*%
X152830000Y-119970000D03*
%TO.P,GPS,8*%
%TO.N,YIC_VCC_3.3V*%
X152830000Y-118870000D03*
%TO.P,GPS,7*%
%TO.N,Net-(U3-Pad7)*%
X152830000Y-117770000D03*
%TO.P,GPS,6*%
%TO.N,Net-(U3-Pad6)*%
X152830000Y-116670000D03*
%TO.P,GPS,5*%
%TO.N,Net-(U3-Pad5)*%
X152830000Y-115570000D03*
%TO.P,GPS,4*%
%TO.N,YIC_PPS*%
X152830000Y-114470000D03*
%TO.P,GPS,3*%
%TO.N,YIC_RXD*%
X152830000Y-113370000D03*
%TO.P,GPS,2*%
%TO.N,YIC_TXD*%
X152830000Y-112270000D03*
%TO.P,GPS,1*%
%TO.N,YIC_GND_1*%
X152830000Y-111170000D03*
%TD*%
D11*
%TO.P,uC,7*%
%TO.N,PIC_RC3*%
X154780000Y-106680000D03*
%TO.P,uC,8*%
%TO.N,PIC_RC2*%
X160180000Y-106680000D03*
%TO.P,uC,6*%
%TO.N,PIC_RC4*%
X154780000Y-105410000D03*
%TO.P,uC,9*%
%TO.N,PIC_RC1*%
X160180000Y-105410000D03*
%TO.P,uC,5*%
%TO.N,PIC_RC5*%
X154780000Y-104140000D03*
%TO.P,uC,10*%
%TO.N,PIC_RC0*%
X160180000Y-104140000D03*
%TO.P,uC,4*%
%TO.N,PIC_RA3*%
X154780000Y-102870000D03*
%TO.P,uC,11*%
%TO.N,PIC_RA2*%
X160180000Y-102870000D03*
%TO.P,uC,3*%
%TO.N,PIC_RA4*%
X154780000Y-101600000D03*
%TO.P,uC,12*%
%TO.N,PIC_RA1*%
X160180000Y-101600000D03*
%TO.P,uC,2*%
%TO.N,PIC_RA5*%
X154780000Y-100330000D03*
%TO.P,uC,13*%
%TO.N,PIC_RA0*%
X160180000Y-100330000D03*
%TO.P,uC,1*%
%TO.N,PIC_VDD*%
X154780000Y-99060000D03*
%TO.P,uC,14*%
%TO.N,PIC_VSS*%
X160180000Y-99060000D03*
%TD*%
D12*
%TO.P,LORA,16*%
%TO.N,LORA_DIO2*%
X165480000Y-79360000D03*
%TO.P,LORA,15*%
%TO.N,LORA_DIO1*%
X165480000Y-81360000D03*
%TO.P,LORA,14*%
%TO.N,LORA_DIO0*%
X165480000Y-83360000D03*
%TO.P,LORA,13*%
%TO.N,LORA_3.3V*%
X165480000Y-85360000D03*
%TO.P,LORA,12*%
%TO.N,LORA_DIO4*%
X165480000Y-87360000D03*
%TO.P,LORA,11*%
%TO.N,LORA_DIO3*%
X165480000Y-89360000D03*
%TO.P,LORA,10*%
%TO.N,LORA_GND_3*%
X165480000Y-91360000D03*
%TO.P,LORA,9*%
%TO.N,LORA_ANT*%
X165480000Y-93360000D03*
%TO.P,LORA,8*%
%TO.N,LORA_GND_2*%
X149480000Y-93360000D03*
%TO.P,LORA,7*%
%TO.N,LORA_DIO5*%
X149480000Y-91360000D03*
%TO.P,LORA,6*%
%TO.N,LORA_RESET*%
X149480000Y-89360000D03*
%TO.P,LORA,5*%
%TO.N,LORA_NSS*%
X149480000Y-87360000D03*
%TO.P,LORA,4*%
%TO.N,LORA_SCK*%
X149480000Y-85360000D03*
%TO.P,LORA,3*%
%TO.N,LORA_MOSI*%
X149480000Y-83360000D03*
%TO.P,LORA,2*%
%TO.N,LORA_MISO*%
X149480000Y-81360000D03*
%TO.P,LORA,1*%
%TO.N,LORA_GND_1*%
X149480000Y-79360000D03*
%TD*%
D13*
%TO.P,J6,9*%
%TO.N,YIC_GND_5*%
X172720000Y-110490000D03*
%TO.P,J6,8*%
%TO.N,Net-(J6-Pad8)*%
X172720000Y-111760000D03*
%TO.P,J6,7*%
%TO.N,Net-(J6-Pad7)*%
X172720000Y-113030000D03*
%TO.P,J6,6*%
%TO.N,YIC_GND_4*%
X172720000Y-114300000D03*
%TO.P,J6,5*%
%TO.N,YIC_VCC_RF*%
X172720000Y-115570000D03*
%TO.P,J6,4*%
%TO.N,Net-(J6-Pad4)*%
X172720000Y-116840000D03*
%TO.P,J6,3*%
%TO.N,YIC_GND_3*%
X172720000Y-118110000D03*
%TO.P,J6,2*%
%TO.N,YIC_RF_IN*%
X172720000Y-119380000D03*
D14*
%TO.P,J6,1*%
%TO.N,YIC_GND_2*%
X172720000Y-120650000D03*
%TD*%
D13*
%TO.P,J5,9*%
%TO.N,Net-(J5-Pad9)*%
X142240000Y-120650000D03*
%TO.P,J5,8*%
%TO.N,YIC_VCC_3.3V*%
X142240000Y-119380000D03*
%TO.P,J5,7*%
%TO.N,Net-(J5-Pad7)*%
X142240000Y-118110000D03*
%TO.P,J5,6*%
%TO.N,Net-(J5-Pad6)*%
X142240000Y-116840000D03*
%TO.P,J5,5*%
%TO.N,Net-(J5-Pad5)*%
X142240000Y-115570000D03*
%TO.P,J5,4*%
%TO.N,YIC_PPS*%
X142240000Y-114300000D03*
%TO.P,J5,3*%
%TO.N,YIC_RXD*%
X142240000Y-113030000D03*
%TO.P,J5,2*%
%TO.N,YIC_TXD*%
X142240000Y-111760000D03*
D14*
%TO.P,J5,1*%
%TO.N,YIC_GND_1*%
X142240000Y-110490000D03*
%TD*%
D13*
%TO.P,J4,7*%
%TO.N,PIC_VSS*%
X172720000Y-99060000D03*
%TO.P,J4,6*%
%TO.N,PIC_RA0*%
X172720000Y-100330000D03*
%TO.P,J4,5*%
%TO.N,PIC_RA1*%
X172720000Y-101600000D03*
%TO.P,J4,4*%
%TO.N,PIC_RA2*%
X172720000Y-102870000D03*
%TO.P,J4,3*%
%TO.N,PIC_RC0*%
X172720000Y-104140000D03*
%TO.P,J4,2*%
%TO.N,PIC_RC1*%
X172720000Y-105410000D03*
D14*
%TO.P,J4,1*%
%TO.N,PIC_RC2*%
X172720000Y-106680000D03*
%TD*%
D13*
%TO.P,J3,7*%
%TO.N,PIC_RC3*%
X142240000Y-106680000D03*
%TO.P,J3,6*%
%TO.N,PIC_RC4*%
X142240000Y-105410000D03*
%TO.P,J3,5*%
%TO.N,PIC_RC5*%
X142240000Y-104140000D03*
%TO.P,J3,4*%
%TO.N,PIC_RA3*%
X142240000Y-102870000D03*
%TO.P,J3,3*%
%TO.N,PIC_RA4*%
X142240000Y-101600000D03*
%TO.P,J3,2*%
%TO.N,PIC_RA5*%
X142240000Y-100330000D03*
D14*
%TO.P,J3,1*%
%TO.N,PIC_VDD*%
X142240000Y-99060000D03*
%TD*%
D13*
%TO.P,J2,8*%
%TO.N,LORA_DIO2*%
X172720000Y-82550000D03*
%TO.P,J2,7*%
%TO.N,LORA_DIO1*%
X172720000Y-83820000D03*
%TO.P,J2,6*%
%TO.N,LORA_DIO0*%
X172720000Y-85090000D03*
%TO.P,J2,5*%
%TO.N,LORA_3.3V*%
X172720000Y-86360000D03*
%TO.P,J2,4*%
%TO.N,LORA_DIO4*%
X172720000Y-87630000D03*
%TO.P,J2,3*%
%TO.N,LORA_DIO3*%
X172720000Y-88900000D03*
%TO.P,J2,2*%
%TO.N,LORA_GND_3*%
X172720000Y-90170000D03*
D14*
%TO.P,J2,1*%
%TO.N,LORA_ANT*%
X172720000Y-91440000D03*
%TD*%
D13*
%TO.P,J1,8*%
%TO.N,LORA_GND_2*%
X142240000Y-91440000D03*
%TO.P,J1,7*%
%TO.N,LORA_DIO5*%
X142240000Y-90170000D03*
%TO.P,J1,6*%
%TO.N,LORA_RESET*%
X142240000Y-88900000D03*
%TO.P,J1,5*%
%TO.N,LORA_NSS*%
X142240000Y-87630000D03*
%TO.P,J1,4*%
%TO.N,LORA_SCK*%
X142240000Y-86360000D03*
%TO.P,J1,3*%
%TO.N,LORA_MOSI*%
X142240000Y-85090000D03*
%TO.P,J1,2*%
%TO.N,LORA_MISO*%
X142240000Y-83820000D03*
D14*
%TO.P,J1,1*%
%TO.N,LORA_GND_1*%
X142240000Y-82550000D03*
%TD*%
D15*
%TO.N,LORA_ANT*%
X170180000Y-95250000D03*
%TD*%
D16*
%TO.N,LORA_GND_2*%
X144160000Y-93360000D02*
X142240000Y-91440000D01*
X149480000Y-93360000D02*
X144160000Y-93360000D01*
D17*
%TO.N,LORA_DIO5*%
X144137106Y-91360000D02*
X149480000Y-91360000D01*
X142947106Y-90170000D02*
X144137106Y-91360000D01*
X142240000Y-90170000D02*
X142947106Y-90170000D01*
%TO.N,LORA_RESET*%
X149020000Y-88900000D02*
X149480000Y-89360000D01*
X142240000Y-88900000D02*
X149020000Y-88900000D01*
%TO.N,LORA_NSS*%
X149210000Y-87630000D02*
X149480000Y-87360000D01*
X142240000Y-87630000D02*
X149210000Y-87630000D01*
%TO.N,LORA_SCK*%
X148480000Y-86360000D02*
X149480000Y-85360000D01*
X142240000Y-86360000D02*
X148480000Y-86360000D01*
%TO.N,LORA_MOSI*%
X144461386Y-83360000D02*
X142731386Y-85090000D01*
X149480000Y-83360000D02*
X144461386Y-83360000D01*
X142731386Y-85090000D02*
X142240000Y-85090000D01*
%TO.N,LORA_MISO*%
X142870002Y-83820000D02*
X142240000Y-83820000D01*
X145330002Y-81360000D02*
X142870002Y-83820000D01*
X149480000Y-81360000D02*
X145330002Y-81360000D01*
D16*
%TO.N,LORA_GND_1*%
X145430000Y-79360000D02*
X142240000Y-82550000D01*
X149480000Y-79360000D02*
X145430000Y-79360000D01*
D17*
%TO.N,LORA_DIO2*%
X169530000Y-79360000D02*
X172720000Y-82550000D01*
X165480000Y-79360000D02*
X169530000Y-79360000D01*
%TO.N,LORA_DIO1*%
X172509998Y-83820000D02*
X170180000Y-81490002D01*
X172720000Y-83820000D02*
X172509998Y-83820000D01*
X165610002Y-81490002D02*
X165480000Y-81360000D01*
X170180000Y-81490002D02*
X165610002Y-81490002D01*
%TO.N,LORA_DIO0*%
X170779998Y-83360000D02*
X165480000Y-83360000D01*
X172509998Y-85090000D02*
X170779998Y-83360000D01*
X172720000Y-85090000D02*
X172509998Y-85090000D01*
D16*
%TO.N,LORA_3.3V*%
X172213998Y-86360000D02*
X172720000Y-86360000D01*
X171213998Y-85360000D02*
X172213998Y-86360000D01*
X165480000Y-85360000D02*
X171213998Y-85360000D01*
D17*
%TO.N,LORA_DIO4*%
X165750000Y-87630000D02*
X165480000Y-87360000D01*
X172720000Y-87630000D02*
X165750000Y-87630000D01*
%TO.N,LORA_DIO3*%
X165940000Y-88900000D02*
X165480000Y-89360000D01*
X172720000Y-88900000D02*
X165940000Y-88900000D01*
D16*
%TO.N,LORA_GND_3*%
X171729998Y-90170000D02*
X172720000Y-90170000D01*
X170539998Y-91360000D02*
X171729998Y-90170000D01*
X165480000Y-91360000D02*
X170539998Y-91360000D01*
%TO.N,LORA_ANT*%
X165480000Y-93360000D02*
X165750000Y-93360000D01*
D17*
X168290000Y-93360000D02*
X170180000Y-95250000D01*
X165480000Y-93360000D02*
X168290000Y-93360000D01*
%TO.N,PIC_RC3*%
X154780000Y-106680000D02*
X142240000Y-106680000D01*
%TO.N,PIC_RC4*%
X154780000Y-105410000D02*
X142240000Y-105410000D01*
%TO.N,PIC_RC5*%
X154780000Y-104140000D02*
X142240000Y-104140000D01*
%TO.N,PIC_RA3*%
X142240000Y-102870000D02*
X154780000Y-102870000D01*
%TO.N,PIC_RA4*%
X154780000Y-101600000D02*
X142240000Y-101600000D01*
%TO.N,PIC_RA5*%
X142240000Y-100330000D02*
X154780000Y-100330000D01*
D16*
%TO.N,PIC_VDD*%
X142240000Y-99060000D02*
X154780000Y-99060000D01*
%TO.N,PIC_VSS*%
X172720000Y-99060000D02*
X160180000Y-99060000D01*
D17*
%TO.N,PIC_RA0*%
X160020000Y-100330000D02*
X172720000Y-100330000D01*
X160180000Y-100330000D02*
X172720000Y-100330000D01*
%TO.N,PIC_RA1*%
X172720000Y-101600000D02*
X160180000Y-101600000D01*
%TO.N,PIC_RA2*%
X172720000Y-102870000D02*
X160180000Y-102870000D01*
%TO.N,PIC_RC0*%
X172720000Y-104140000D02*
X160180000Y-104140000D01*
%TO.N,PIC_RC1*%
X172720000Y-105410000D02*
X160180000Y-105410000D01*
%TO.N,PIC_RC2*%
X172720000Y-106680000D02*
X160180000Y-106680000D01*
%TO.N,YIC_VCC_3.3V*%
X143010000Y-119380000D02*
X142240000Y-119380000D01*
X143520000Y-118870000D02*
X143010000Y-119380000D01*
X152630000Y-118870000D02*
X143520000Y-118870000D01*
%TO.N,YIC_PPS*%
X142410000Y-114470000D02*
X142240000Y-114300000D01*
X152630000Y-114470000D02*
X142410000Y-114470000D01*
%TO.N,YIC_RXD*%
X142947106Y-113030000D02*
X142240000Y-113030000D01*
X143287106Y-113370000D02*
X142947106Y-113030000D01*
X152630000Y-113370000D02*
X143287106Y-113370000D01*
%TO.N,YIC_TXD*%
X142947106Y-111760000D02*
X142240000Y-111760000D01*
X143457106Y-112270000D02*
X142947106Y-111760000D01*
X152630000Y-112270000D02*
X143457106Y-112270000D01*
%TO.N,YIC_GND_1*%
X151950000Y-110490000D02*
X142240000Y-110490000D01*
X152630000Y-111170000D02*
X151950000Y-110490000D01*
%TO.N,YIC_GND_5*%
X163010000Y-110490000D02*
X172720000Y-110490000D01*
X162330000Y-111170000D02*
X163010000Y-110490000D01*
%TO.N,YIC_GND_4*%
X172550000Y-114470000D02*
X172720000Y-114300000D01*
X162330000Y-114470000D02*
X172550000Y-114470000D01*
%TO.N,YIC_VCC_RF*%
X162330000Y-115570000D02*
X172720000Y-115570000D01*
%TO.N,YIC_GND_3*%
X172012894Y-118110000D02*
X172720000Y-118110000D01*
X171672894Y-117770000D02*
X172012894Y-118110000D01*
X162330000Y-117770000D02*
X171672894Y-117770000D01*
%TO.N,YIC_RF_IN*%
X172012894Y-119380000D02*
X172720000Y-119380000D01*
X171502894Y-118870000D02*
X172012894Y-119380000D01*
X162330000Y-118870000D02*
X171502894Y-118870000D01*
%TO.N,YIC_GND_2*%
X163010000Y-120650000D02*
X172720000Y-120650000D01*
X162330000Y-119970000D02*
X163010000Y-120650000D01*
%TD*%
M02*
