%FSLAX45Y45*%
G04 Gerber Fmt 4.5, Leading zero omitted, Abs format (unit mm)*
G04 Created by KiCad (PCBNEW (5.1.10)-1) date 2021-12-23 11:07:06*
%MOMM*%
%LPD*%
G01*
G04 APERTURE LIST*
%TA.AperFunction,Profile*%
%ADD10C,0.050000*%
%TD*%
%ADD11C,0.200000*%
%ADD12C,0.300000*%
G04 APERTURE END LIST*
D10*
X13970000Y-12319000D02*
X17526000Y-12319000D01*
X13970000Y-7493000D02*
X13970000Y-12319000D01*
X17526000Y-7493000D02*
X13970000Y-7493000D01*
X17526000Y-12319000D02*
X17526000Y-7493000D01*
D11*
X14189000Y-8220000D02*
X14259000Y-8290000D01*
X14259000Y-8220000D02*
X14189000Y-8290000D01*
X14189000Y-8347000D02*
X14259000Y-8417000D01*
X14259000Y-8347000D02*
X14189000Y-8417000D01*
X14189000Y-8474000D02*
X14259000Y-8544000D01*
X14259000Y-8474000D02*
X14189000Y-8544000D01*
X14189000Y-8601000D02*
X14259000Y-8671000D01*
X14259000Y-8601000D02*
X14189000Y-8671000D01*
X14189000Y-8728000D02*
X14259000Y-8798000D01*
X14259000Y-8728000D02*
X14189000Y-8798000D01*
X14189000Y-8855000D02*
X14259000Y-8925000D01*
X14259000Y-8855000D02*
X14189000Y-8925000D01*
X14189000Y-8982000D02*
X14259000Y-9052000D01*
X14259000Y-8982000D02*
X14189000Y-9052000D01*
X14189000Y-9109000D02*
X14259000Y-9179000D01*
X14259000Y-9109000D02*
X14189000Y-9179000D01*
X14189000Y-9871000D02*
X14259000Y-9941000D01*
X14259000Y-9871000D02*
X14189000Y-9941000D01*
X14189000Y-9998000D02*
X14259000Y-10068000D01*
X14259000Y-9998000D02*
X14189000Y-10068000D01*
X14189000Y-10125000D02*
X14259000Y-10195000D01*
X14259000Y-10125000D02*
X14189000Y-10195000D01*
X14189000Y-10252000D02*
X14259000Y-10322000D01*
X14259000Y-10252000D02*
X14189000Y-10322000D01*
X14189000Y-10379000D02*
X14259000Y-10449000D01*
X14259000Y-10379000D02*
X14189000Y-10449000D01*
X14189000Y-10506000D02*
X14259000Y-10576000D01*
X14259000Y-10506000D02*
X14189000Y-10576000D01*
X14189000Y-10633000D02*
X14259000Y-10703000D01*
X14259000Y-10633000D02*
X14189000Y-10703000D01*
X14189000Y-11014000D02*
X14259000Y-11084000D01*
X14259000Y-11014000D02*
X14189000Y-11084000D01*
X14189000Y-11141000D02*
X14259000Y-11211000D01*
X14259000Y-11141000D02*
X14189000Y-11211000D01*
X14189000Y-11268000D02*
X14259000Y-11338000D01*
X14259000Y-11268000D02*
X14189000Y-11338000D01*
X14189000Y-11395000D02*
X14259000Y-11465000D01*
X14259000Y-11395000D02*
X14189000Y-11465000D01*
X14189000Y-11522000D02*
X14259000Y-11592000D01*
X14259000Y-11522000D02*
X14189000Y-11592000D01*
X14189000Y-11649000D02*
X14259000Y-11719000D01*
X14259000Y-11649000D02*
X14189000Y-11719000D01*
X14189000Y-11776000D02*
X14259000Y-11846000D01*
X14259000Y-11776000D02*
X14189000Y-11846000D01*
X14189000Y-11903000D02*
X14259000Y-11973000D01*
X14259000Y-11903000D02*
X14189000Y-11973000D01*
X14189000Y-12030000D02*
X14259000Y-12100000D01*
X14259000Y-12030000D02*
X14189000Y-12100000D01*
X17237000Y-8220000D02*
X17307000Y-8290000D01*
X17307000Y-8220000D02*
X17237000Y-8290000D01*
X17237000Y-8347000D02*
X17307000Y-8417000D01*
X17307000Y-8347000D02*
X17237000Y-8417000D01*
X17237000Y-8474000D02*
X17307000Y-8544000D01*
X17307000Y-8474000D02*
X17237000Y-8544000D01*
X17237000Y-8601000D02*
X17307000Y-8671000D01*
X17307000Y-8601000D02*
X17237000Y-8671000D01*
X17237000Y-8728000D02*
X17307000Y-8798000D01*
X17307000Y-8728000D02*
X17237000Y-8798000D01*
X17237000Y-8855000D02*
X17307000Y-8925000D01*
X17307000Y-8855000D02*
X17237000Y-8925000D01*
X17237000Y-8982000D02*
X17307000Y-9052000D01*
X17307000Y-8982000D02*
X17237000Y-9052000D01*
X17237000Y-9109000D02*
X17307000Y-9179000D01*
X17307000Y-9109000D02*
X17237000Y-9179000D01*
X17237000Y-9871000D02*
X17307000Y-9941000D01*
X17307000Y-9871000D02*
X17237000Y-9941000D01*
X17237000Y-9998000D02*
X17307000Y-10068000D01*
X17307000Y-9998000D02*
X17237000Y-10068000D01*
X17237000Y-10125000D02*
X17307000Y-10195000D01*
X17307000Y-10125000D02*
X17237000Y-10195000D01*
X17237000Y-10252000D02*
X17307000Y-10322000D01*
X17307000Y-10252000D02*
X17237000Y-10322000D01*
X17237000Y-10379000D02*
X17307000Y-10449000D01*
X17307000Y-10379000D02*
X17237000Y-10449000D01*
X17237000Y-10506000D02*
X17307000Y-10576000D01*
X17307000Y-10506000D02*
X17237000Y-10576000D01*
X17237000Y-10633000D02*
X17307000Y-10703000D01*
X17307000Y-10633000D02*
X17237000Y-10703000D01*
X17237000Y-11014000D02*
X17307000Y-11084000D01*
X17307000Y-11014000D02*
X17237000Y-11084000D01*
X17237000Y-11141000D02*
X17307000Y-11211000D01*
X17307000Y-11141000D02*
X17237000Y-11211000D01*
X17237000Y-11268000D02*
X17307000Y-11338000D01*
X17307000Y-11268000D02*
X17237000Y-11338000D01*
X17237000Y-11395000D02*
X17307000Y-11465000D01*
X17307000Y-11395000D02*
X17237000Y-11465000D01*
X17237000Y-11522000D02*
X17307000Y-11592000D01*
X17307000Y-11522000D02*
X17237000Y-11592000D01*
X17237000Y-11649000D02*
X17307000Y-11719000D01*
X17307000Y-11649000D02*
X17237000Y-11719000D01*
X17237000Y-11776000D02*
X17307000Y-11846000D01*
X17307000Y-11776000D02*
X17237000Y-11846000D01*
X17237000Y-11903000D02*
X17307000Y-11973000D01*
X17307000Y-11903000D02*
X17237000Y-11973000D01*
X17237000Y-12030000D02*
X17307000Y-12100000D01*
X17307000Y-12030000D02*
X17237000Y-12100000D01*
X17073000Y-9525000D02*
G75*
G03*
X17073000Y-9525000I-55000J0D01*
G01*
D12*
X14253928Y-12787214D02*
X14253928Y-12487214D01*
X14325357Y-12487214D01*
X14368214Y-12501500D01*
X14396786Y-12530071D01*
X14411071Y-12558643D01*
X14425357Y-12615786D01*
X14425357Y-12658643D01*
X14411071Y-12715786D01*
X14396786Y-12744357D01*
X14368214Y-12772929D01*
X14325357Y-12787214D01*
X14253928Y-12787214D01*
X14553928Y-12787214D02*
X14553928Y-12587214D01*
X14553928Y-12644357D02*
X14568214Y-12615786D01*
X14582500Y-12601500D01*
X14611071Y-12587214D01*
X14639643Y-12587214D01*
X14739643Y-12787214D02*
X14739643Y-12587214D01*
X14739643Y-12487214D02*
X14725357Y-12501500D01*
X14739643Y-12515786D01*
X14753928Y-12501500D01*
X14739643Y-12487214D01*
X14739643Y-12515786D01*
X14925357Y-12787214D02*
X14896786Y-12772929D01*
X14882500Y-12744357D01*
X14882500Y-12487214D01*
X15082500Y-12787214D02*
X15053928Y-12772929D01*
X15039643Y-12744357D01*
X15039643Y-12487214D01*
X15425357Y-12787214D02*
X15425357Y-12487214D01*
X15525357Y-12701500D01*
X15625357Y-12487214D01*
X15625357Y-12787214D01*
X15896786Y-12787214D02*
X15896786Y-12630071D01*
X15882500Y-12601500D01*
X15853928Y-12587214D01*
X15796786Y-12587214D01*
X15768214Y-12601500D01*
X15896786Y-12772929D02*
X15868214Y-12787214D01*
X15796786Y-12787214D01*
X15768214Y-12772929D01*
X15753928Y-12744357D01*
X15753928Y-12715786D01*
X15768214Y-12687214D01*
X15796786Y-12672929D01*
X15868214Y-12672929D01*
X15896786Y-12658643D01*
X16039643Y-12587214D02*
X16039643Y-12887214D01*
X16039643Y-12601500D02*
X16068214Y-12587214D01*
X16125357Y-12587214D01*
X16153928Y-12601500D01*
X16168214Y-12615786D01*
X16182500Y-12644357D01*
X16182500Y-12730071D01*
X16168214Y-12758643D01*
X16153928Y-12772929D01*
X16125357Y-12787214D01*
X16068214Y-12787214D01*
X16039643Y-12772929D01*
X16311071Y-12758643D02*
X16325357Y-12772929D01*
X16311071Y-12787214D01*
X16296786Y-12772929D01*
X16311071Y-12758643D01*
X16311071Y-12787214D01*
X16311071Y-12601500D02*
X16325357Y-12615786D01*
X16311071Y-12630071D01*
X16296786Y-12615786D01*
X16311071Y-12601500D01*
X16311071Y-12630071D01*
X13897500Y-13246500D02*
X13967500Y-13316500D01*
X13967500Y-13246500D02*
X13897500Y-13316500D01*
X14311071Y-13117214D02*
X14339643Y-13117214D01*
X14368214Y-13131500D01*
X14382500Y-13145786D01*
X14396786Y-13174357D01*
X14411071Y-13231500D01*
X14411071Y-13302929D01*
X14396786Y-13360071D01*
X14382500Y-13388643D01*
X14368214Y-13402929D01*
X14339643Y-13417214D01*
X14311071Y-13417214D01*
X14282500Y-13402929D01*
X14268214Y-13388643D01*
X14253928Y-13360071D01*
X14239643Y-13302929D01*
X14239643Y-13231500D01*
X14253928Y-13174357D01*
X14268214Y-13145786D01*
X14282500Y-13131500D01*
X14311071Y-13117214D01*
X14539643Y-13388643D02*
X14553928Y-13402929D01*
X14539643Y-13417214D01*
X14525357Y-13402929D01*
X14539643Y-13388643D01*
X14539643Y-13417214D01*
X14653928Y-13117214D02*
X14853928Y-13117214D01*
X14725357Y-13417214D01*
X15025357Y-13117214D02*
X15053928Y-13117214D01*
X15082500Y-13131500D01*
X15096786Y-13145786D01*
X15111071Y-13174357D01*
X15125357Y-13231500D01*
X15125357Y-13302929D01*
X15111071Y-13360071D01*
X15096786Y-13388643D01*
X15082500Y-13402929D01*
X15053928Y-13417214D01*
X15025357Y-13417214D01*
X14996786Y-13402929D01*
X14982500Y-13388643D01*
X14968214Y-13360071D01*
X14953928Y-13302929D01*
X14953928Y-13231500D01*
X14968214Y-13174357D01*
X14982500Y-13145786D01*
X14996786Y-13131500D01*
X15025357Y-13117214D01*
X15311071Y-13117214D02*
X15339643Y-13117214D01*
X15368214Y-13131500D01*
X15382500Y-13145786D01*
X15396786Y-13174357D01*
X15411071Y-13231500D01*
X15411071Y-13302929D01*
X15396786Y-13360071D01*
X15382500Y-13388643D01*
X15368214Y-13402929D01*
X15339643Y-13417214D01*
X15311071Y-13417214D01*
X15282500Y-13402929D01*
X15268214Y-13388643D01*
X15253928Y-13360071D01*
X15239643Y-13302929D01*
X15239643Y-13231500D01*
X15253928Y-13174357D01*
X15268214Y-13145786D01*
X15282500Y-13131500D01*
X15311071Y-13117214D01*
X15539643Y-13417214D02*
X15539643Y-13217214D01*
X15539643Y-13245786D02*
X15553928Y-13231500D01*
X15582500Y-13217214D01*
X15625357Y-13217214D01*
X15653928Y-13231500D01*
X15668214Y-13260071D01*
X15668214Y-13417214D01*
X15668214Y-13260071D02*
X15682500Y-13231500D01*
X15711071Y-13217214D01*
X15753928Y-13217214D01*
X15782500Y-13231500D01*
X15796786Y-13260071D01*
X15796786Y-13417214D01*
X15939643Y-13417214D02*
X15939643Y-13217214D01*
X15939643Y-13245786D02*
X15953928Y-13231500D01*
X15982500Y-13217214D01*
X16025357Y-13217214D01*
X16053928Y-13231500D01*
X16068214Y-13260071D01*
X16068214Y-13417214D01*
X16068214Y-13260071D02*
X16082500Y-13231500D01*
X16111071Y-13217214D01*
X16153928Y-13217214D01*
X16182500Y-13231500D01*
X16196786Y-13260071D01*
X16196786Y-13417214D01*
X16782500Y-13102929D02*
X16525357Y-13488643D01*
X17168214Y-13117214D02*
X17196786Y-13117214D01*
X17225357Y-13131500D01*
X17239643Y-13145786D01*
X17253928Y-13174357D01*
X17268214Y-13231500D01*
X17268214Y-13302929D01*
X17253928Y-13360071D01*
X17239643Y-13388643D01*
X17225357Y-13402929D01*
X17196786Y-13417214D01*
X17168214Y-13417214D01*
X17139643Y-13402929D01*
X17125357Y-13388643D01*
X17111071Y-13360071D01*
X17096786Y-13302929D01*
X17096786Y-13231500D01*
X17111071Y-13174357D01*
X17125357Y-13145786D01*
X17139643Y-13131500D01*
X17168214Y-13117214D01*
X17396786Y-13388643D02*
X17411071Y-13402929D01*
X17396786Y-13417214D01*
X17382500Y-13402929D01*
X17396786Y-13388643D01*
X17396786Y-13417214D01*
X17596786Y-13117214D02*
X17625357Y-13117214D01*
X17653928Y-13131500D01*
X17668214Y-13145786D01*
X17682500Y-13174357D01*
X17696786Y-13231500D01*
X17696786Y-13302929D01*
X17682500Y-13360071D01*
X17668214Y-13388643D01*
X17653928Y-13402929D01*
X17625357Y-13417214D01*
X17596786Y-13417214D01*
X17568214Y-13402929D01*
X17553928Y-13388643D01*
X17539643Y-13360071D01*
X17525357Y-13302929D01*
X17525357Y-13231500D01*
X17539643Y-13174357D01*
X17553928Y-13145786D01*
X17568214Y-13131500D01*
X17596786Y-13117214D01*
X17811071Y-13145786D02*
X17825357Y-13131500D01*
X17853928Y-13117214D01*
X17925357Y-13117214D01*
X17953928Y-13131500D01*
X17968214Y-13145786D01*
X17982500Y-13174357D01*
X17982500Y-13202929D01*
X17968214Y-13245786D01*
X17796786Y-13417214D01*
X17982500Y-13417214D01*
X18082500Y-13117214D02*
X18282500Y-13117214D01*
X18153928Y-13417214D01*
X18525357Y-13117214D02*
X18468214Y-13117214D01*
X18439643Y-13131500D01*
X18425357Y-13145786D01*
X18396786Y-13188643D01*
X18382500Y-13245786D01*
X18382500Y-13360071D01*
X18396786Y-13388643D01*
X18411071Y-13402929D01*
X18439643Y-13417214D01*
X18496786Y-13417214D01*
X18525357Y-13402929D01*
X18539643Y-13388643D01*
X18553928Y-13360071D01*
X18553928Y-13288643D01*
X18539643Y-13260071D01*
X18525357Y-13245786D01*
X18496786Y-13231500D01*
X18439643Y-13231500D01*
X18411071Y-13245786D01*
X18396786Y-13260071D01*
X18382500Y-13288643D01*
X18668214Y-13117214D02*
X18668214Y-13174357D01*
X18782500Y-13117214D02*
X18782500Y-13174357D01*
X19225357Y-13531500D02*
X19211071Y-13517214D01*
X19182500Y-13474357D01*
X19168214Y-13445786D01*
X19153928Y-13402929D01*
X19139643Y-13331500D01*
X19139643Y-13274357D01*
X19153928Y-13202929D01*
X19168214Y-13160071D01*
X19182500Y-13131500D01*
X19211071Y-13088643D01*
X19225357Y-13074357D01*
X19468214Y-13217214D02*
X19468214Y-13417214D01*
X19396786Y-13102929D02*
X19325357Y-13317214D01*
X19511071Y-13317214D01*
X19668214Y-13245786D02*
X19639643Y-13231500D01*
X19625357Y-13217214D01*
X19611071Y-13188643D01*
X19611071Y-13174357D01*
X19625357Y-13145786D01*
X19639643Y-13131500D01*
X19668214Y-13117214D01*
X19725357Y-13117214D01*
X19753928Y-13131500D01*
X19768214Y-13145786D01*
X19782500Y-13174357D01*
X19782500Y-13188643D01*
X19768214Y-13217214D01*
X19753928Y-13231500D01*
X19725357Y-13245786D01*
X19668214Y-13245786D01*
X19639643Y-13260071D01*
X19625357Y-13274357D01*
X19611071Y-13302929D01*
X19611071Y-13360071D01*
X19625357Y-13388643D01*
X19639643Y-13402929D01*
X19668214Y-13417214D01*
X19725357Y-13417214D01*
X19753928Y-13402929D01*
X19768214Y-13388643D01*
X19782500Y-13360071D01*
X19782500Y-13302929D01*
X19768214Y-13274357D01*
X19753928Y-13260071D01*
X19725357Y-13245786D01*
X20139643Y-13417214D02*
X20139643Y-13117214D01*
X20268214Y-13417214D02*
X20268214Y-13260071D01*
X20253928Y-13231500D01*
X20225357Y-13217214D01*
X20182500Y-13217214D01*
X20153928Y-13231500D01*
X20139643Y-13245786D01*
X20453928Y-13417214D02*
X20425357Y-13402929D01*
X20411071Y-13388643D01*
X20396786Y-13360071D01*
X20396786Y-13274357D01*
X20411071Y-13245786D01*
X20425357Y-13231500D01*
X20453928Y-13217214D01*
X20496786Y-13217214D01*
X20525357Y-13231500D01*
X20539643Y-13245786D01*
X20553928Y-13274357D01*
X20553928Y-13360071D01*
X20539643Y-13388643D01*
X20525357Y-13402929D01*
X20496786Y-13417214D01*
X20453928Y-13417214D01*
X20725357Y-13417214D02*
X20696786Y-13402929D01*
X20682500Y-13374357D01*
X20682500Y-13117214D01*
X20953928Y-13402929D02*
X20925357Y-13417214D01*
X20868214Y-13417214D01*
X20839643Y-13402929D01*
X20825357Y-13374357D01*
X20825357Y-13260071D01*
X20839643Y-13231500D01*
X20868214Y-13217214D01*
X20925357Y-13217214D01*
X20953928Y-13231500D01*
X20968214Y-13260071D01*
X20968214Y-13288643D01*
X20825357Y-13317214D01*
X21082500Y-13402929D02*
X21111071Y-13417214D01*
X21168214Y-13417214D01*
X21196786Y-13402929D01*
X21211071Y-13374357D01*
X21211071Y-13360071D01*
X21196786Y-13331500D01*
X21168214Y-13317214D01*
X21125357Y-13317214D01*
X21096786Y-13302929D01*
X21082500Y-13274357D01*
X21082500Y-13260071D01*
X21096786Y-13231500D01*
X21125357Y-13217214D01*
X21168214Y-13217214D01*
X21196786Y-13231500D01*
X21311071Y-13531500D02*
X21325357Y-13517214D01*
X21353928Y-13474357D01*
X21368214Y-13445786D01*
X21382500Y-13402929D01*
X21396786Y-13331500D01*
X21396786Y-13274357D01*
X21382500Y-13202929D01*
X21368214Y-13160071D01*
X21353928Y-13131500D01*
X21325357Y-13088643D01*
X21311071Y-13074357D01*
X13967500Y-13677500D02*
G75*
G03*
X13967500Y-13677500I-55000J0D01*
G01*
X14411071Y-13813214D02*
X14239643Y-13813214D01*
X14325357Y-13813214D02*
X14325357Y-13513214D01*
X14296786Y-13556071D01*
X14268214Y-13584643D01*
X14239643Y-13598929D01*
X14539643Y-13784643D02*
X14553928Y-13798929D01*
X14539643Y-13813214D01*
X14525357Y-13798929D01*
X14539643Y-13784643D01*
X14539643Y-13813214D01*
X14839643Y-13813214D02*
X14668214Y-13813214D01*
X14753928Y-13813214D02*
X14753928Y-13513214D01*
X14725357Y-13556071D01*
X14696786Y-13584643D01*
X14668214Y-13598929D01*
X15025357Y-13513214D02*
X15053928Y-13513214D01*
X15082500Y-13527500D01*
X15096786Y-13541786D01*
X15111071Y-13570357D01*
X15125357Y-13627500D01*
X15125357Y-13698929D01*
X15111071Y-13756071D01*
X15096786Y-13784643D01*
X15082500Y-13798929D01*
X15053928Y-13813214D01*
X15025357Y-13813214D01*
X14996786Y-13798929D01*
X14982500Y-13784643D01*
X14968214Y-13756071D01*
X14953928Y-13698929D01*
X14953928Y-13627500D01*
X14968214Y-13570357D01*
X14982500Y-13541786D01*
X14996786Y-13527500D01*
X15025357Y-13513214D01*
X15311071Y-13513214D02*
X15339643Y-13513214D01*
X15368214Y-13527500D01*
X15382500Y-13541786D01*
X15396786Y-13570357D01*
X15411071Y-13627500D01*
X15411071Y-13698929D01*
X15396786Y-13756071D01*
X15382500Y-13784643D01*
X15368214Y-13798929D01*
X15339643Y-13813214D01*
X15311071Y-13813214D01*
X15282500Y-13798929D01*
X15268214Y-13784643D01*
X15253928Y-13756071D01*
X15239643Y-13698929D01*
X15239643Y-13627500D01*
X15253928Y-13570357D01*
X15268214Y-13541786D01*
X15282500Y-13527500D01*
X15311071Y-13513214D01*
X15539643Y-13813214D02*
X15539643Y-13613214D01*
X15539643Y-13641786D02*
X15553928Y-13627500D01*
X15582500Y-13613214D01*
X15625357Y-13613214D01*
X15653928Y-13627500D01*
X15668214Y-13656071D01*
X15668214Y-13813214D01*
X15668214Y-13656071D02*
X15682500Y-13627500D01*
X15711071Y-13613214D01*
X15753928Y-13613214D01*
X15782500Y-13627500D01*
X15796786Y-13656071D01*
X15796786Y-13813214D01*
X15939643Y-13813214D02*
X15939643Y-13613214D01*
X15939643Y-13641786D02*
X15953928Y-13627500D01*
X15982500Y-13613214D01*
X16025357Y-13613214D01*
X16053928Y-13627500D01*
X16068214Y-13656071D01*
X16068214Y-13813214D01*
X16068214Y-13656071D02*
X16082500Y-13627500D01*
X16111071Y-13613214D01*
X16153928Y-13613214D01*
X16182500Y-13627500D01*
X16196786Y-13656071D01*
X16196786Y-13813214D01*
X16782500Y-13498929D02*
X16525357Y-13884643D01*
X17168214Y-13513214D02*
X17196786Y-13513214D01*
X17225357Y-13527500D01*
X17239643Y-13541786D01*
X17253928Y-13570357D01*
X17268214Y-13627500D01*
X17268214Y-13698929D01*
X17253928Y-13756071D01*
X17239643Y-13784643D01*
X17225357Y-13798929D01*
X17196786Y-13813214D01*
X17168214Y-13813214D01*
X17139643Y-13798929D01*
X17125357Y-13784643D01*
X17111071Y-13756071D01*
X17096786Y-13698929D01*
X17096786Y-13627500D01*
X17111071Y-13570357D01*
X17125357Y-13541786D01*
X17139643Y-13527500D01*
X17168214Y-13513214D01*
X17396786Y-13784643D02*
X17411071Y-13798929D01*
X17396786Y-13813214D01*
X17382500Y-13798929D01*
X17396786Y-13784643D01*
X17396786Y-13813214D01*
X17596786Y-13513214D02*
X17625357Y-13513214D01*
X17653928Y-13527500D01*
X17668214Y-13541786D01*
X17682500Y-13570357D01*
X17696786Y-13627500D01*
X17696786Y-13698929D01*
X17682500Y-13756071D01*
X17668214Y-13784643D01*
X17653928Y-13798929D01*
X17625357Y-13813214D01*
X17596786Y-13813214D01*
X17568214Y-13798929D01*
X17553928Y-13784643D01*
X17539643Y-13756071D01*
X17525357Y-13698929D01*
X17525357Y-13627500D01*
X17539643Y-13570357D01*
X17553928Y-13541786D01*
X17568214Y-13527500D01*
X17596786Y-13513214D01*
X17953928Y-13613214D02*
X17953928Y-13813214D01*
X17882500Y-13498929D02*
X17811071Y-13713214D01*
X17996786Y-13713214D01*
X18082500Y-13513214D02*
X18268214Y-13513214D01*
X18168214Y-13627500D01*
X18211071Y-13627500D01*
X18239643Y-13641786D01*
X18253928Y-13656071D01*
X18268214Y-13684643D01*
X18268214Y-13756071D01*
X18253928Y-13784643D01*
X18239643Y-13798929D01*
X18211071Y-13813214D01*
X18125357Y-13813214D01*
X18096786Y-13798929D01*
X18082500Y-13784643D01*
X18368214Y-13513214D02*
X18553928Y-13513214D01*
X18453928Y-13627500D01*
X18496786Y-13627500D01*
X18525357Y-13641786D01*
X18539643Y-13656071D01*
X18553928Y-13684643D01*
X18553928Y-13756071D01*
X18539643Y-13784643D01*
X18525357Y-13798929D01*
X18496786Y-13813214D01*
X18411071Y-13813214D01*
X18382500Y-13798929D01*
X18368214Y-13784643D01*
X18668214Y-13513214D02*
X18668214Y-13570357D01*
X18782500Y-13513214D02*
X18782500Y-13570357D01*
X19225357Y-13927500D02*
X19211071Y-13913214D01*
X19182500Y-13870357D01*
X19168214Y-13841786D01*
X19153928Y-13798929D01*
X19139643Y-13727500D01*
X19139643Y-13670357D01*
X19153928Y-13598929D01*
X19168214Y-13556071D01*
X19182500Y-13527500D01*
X19211071Y-13484643D01*
X19225357Y-13470357D01*
X19496786Y-13813214D02*
X19325357Y-13813214D01*
X19411071Y-13813214D02*
X19411071Y-13513214D01*
X19382500Y-13556071D01*
X19353928Y-13584643D01*
X19325357Y-13598929D01*
X19853928Y-13813214D02*
X19853928Y-13513214D01*
X19982500Y-13813214D02*
X19982500Y-13656071D01*
X19968214Y-13627500D01*
X19939643Y-13613214D01*
X19896786Y-13613214D01*
X19868214Y-13627500D01*
X19853928Y-13641786D01*
X20168214Y-13813214D02*
X20139643Y-13798929D01*
X20125357Y-13784643D01*
X20111071Y-13756071D01*
X20111071Y-13670357D01*
X20125357Y-13641786D01*
X20139643Y-13627500D01*
X20168214Y-13613214D01*
X20211071Y-13613214D01*
X20239643Y-13627500D01*
X20253928Y-13641786D01*
X20268214Y-13670357D01*
X20268214Y-13756071D01*
X20253928Y-13784643D01*
X20239643Y-13798929D01*
X20211071Y-13813214D01*
X20168214Y-13813214D01*
X20439643Y-13813214D02*
X20411071Y-13798929D01*
X20396786Y-13770357D01*
X20396786Y-13513214D01*
X20668214Y-13798929D02*
X20639643Y-13813214D01*
X20582500Y-13813214D01*
X20553928Y-13798929D01*
X20539643Y-13770357D01*
X20539643Y-13656071D01*
X20553928Y-13627500D01*
X20582500Y-13613214D01*
X20639643Y-13613214D01*
X20668214Y-13627500D01*
X20682500Y-13656071D01*
X20682500Y-13684643D01*
X20539643Y-13713214D01*
X20782500Y-13927500D02*
X20796786Y-13913214D01*
X20825357Y-13870357D01*
X20839643Y-13841786D01*
X20853928Y-13798929D01*
X20868214Y-13727500D01*
X20868214Y-13670357D01*
X20853928Y-13598929D01*
X20839643Y-13556071D01*
X20825357Y-13527500D01*
X20796786Y-13484643D01*
X20782500Y-13470357D01*
M02*
