%TF.GenerationSoftware,KiCad,Pcbnew,(5.1.10)-1*%
%TF.CreationDate,2021-12-23T09:49:10-08:00*%
%TF.ProjectId,ats-remote,6174732d-7265-46d6-9f74-652e6b696361,rev?*%
%TF.SameCoordinates,Original*%
%TF.FileFunction,Legend,Top*%
%TF.FilePolarity,Positive*%
%FSLAX46Y46*%
G04 Gerber Fmt 4.6, Leading zero omitted, Abs format (unit mm)*
G04 Created by KiCad (PCBNEW (5.1.10)-1) date 2021-12-23 09:49:10*
%MOMM*%
%LPD*%
G01*
G04 APERTURE LIST*
%ADD10C,0.200000*%
%ADD11C,0.150000*%
%ADD12C,0.120000*%
%ADD13C,0.400000*%
%ADD14C,0.300000*%
G04 APERTURE END LIST*
D10*
X147733809Y-122753333D02*
X147686190Y-122705714D01*
X147590952Y-122562857D01*
X147543333Y-122467619D01*
X147495714Y-122324761D01*
X147448095Y-122086666D01*
X147448095Y-121896190D01*
X147495714Y-121658095D01*
X147543333Y-121515238D01*
X147590952Y-121420000D01*
X147686190Y-121277142D01*
X147733809Y-121229523D01*
X148543333Y-122324761D02*
X148448095Y-122372380D01*
X148257619Y-122372380D01*
X148162380Y-122324761D01*
X148114761Y-122277142D01*
X148067142Y-122181904D01*
X148067142Y-121896190D01*
X148114761Y-121800952D01*
X148162380Y-121753333D01*
X148257619Y-121705714D01*
X148448095Y-121705714D01*
X148543333Y-121753333D01*
X148876666Y-122753333D02*
X148924285Y-122705714D01*
X149019523Y-122562857D01*
X149067142Y-122467619D01*
X149114761Y-122324761D01*
X149162380Y-122086666D01*
X149162380Y-121896190D01*
X149114761Y-121658095D01*
X149067142Y-121515238D01*
X149019523Y-121420000D01*
X148924285Y-121277142D01*
X148876666Y-121229523D01*
X150352857Y-121467619D02*
X150400476Y-121420000D01*
X150495714Y-121372380D01*
X150733809Y-121372380D01*
X150829047Y-121420000D01*
X150876666Y-121467619D01*
X150924285Y-121562857D01*
X150924285Y-121658095D01*
X150876666Y-121800952D01*
X150305238Y-122372380D01*
X150924285Y-122372380D01*
X151543333Y-121372380D02*
X151638571Y-121372380D01*
X151733809Y-121420000D01*
X151781428Y-121467619D01*
X151829047Y-121562857D01*
X151876666Y-121753333D01*
X151876666Y-121991428D01*
X151829047Y-122181904D01*
X151781428Y-122277142D01*
X151733809Y-122324761D01*
X151638571Y-122372380D01*
X151543333Y-122372380D01*
X151448095Y-122324761D01*
X151400476Y-122277142D01*
X151352857Y-122181904D01*
X151305238Y-121991428D01*
X151305238Y-121753333D01*
X151352857Y-121562857D01*
X151400476Y-121467619D01*
X151448095Y-121420000D01*
X151543333Y-121372380D01*
X152257619Y-121467619D02*
X152305238Y-121420000D01*
X152400476Y-121372380D01*
X152638571Y-121372380D01*
X152733809Y-121420000D01*
X152781428Y-121467619D01*
X152829047Y-121562857D01*
X152829047Y-121658095D01*
X152781428Y-121800952D01*
X152210000Y-122372380D01*
X152829047Y-122372380D01*
X153781428Y-122372380D02*
X153210000Y-122372380D01*
X153495714Y-122372380D02*
X153495714Y-121372380D01*
X153400476Y-121515238D01*
X153305238Y-121610476D01*
X153210000Y-121658095D01*
X154924285Y-122324761D02*
X155067142Y-122372380D01*
X155305238Y-122372380D01*
X155400476Y-122324761D01*
X155448095Y-122277142D01*
X155495714Y-122181904D01*
X155495714Y-122086666D01*
X155448095Y-121991428D01*
X155400476Y-121943809D01*
X155305238Y-121896190D01*
X155114761Y-121848571D01*
X155019523Y-121800952D01*
X154971904Y-121753333D01*
X154924285Y-121658095D01*
X154924285Y-121562857D01*
X154971904Y-121467619D01*
X155019523Y-121420000D01*
X155114761Y-121372380D01*
X155352857Y-121372380D01*
X155495714Y-121420000D01*
X155781428Y-121705714D02*
X156162380Y-121705714D01*
X155924285Y-121372380D02*
X155924285Y-122229523D01*
X155971904Y-122324761D01*
X156067142Y-122372380D01*
X156162380Y-122372380D01*
X156876666Y-122324761D02*
X156781428Y-122372380D01*
X156590952Y-122372380D01*
X156495714Y-122324761D01*
X156448095Y-122229523D01*
X156448095Y-121848571D01*
X156495714Y-121753333D01*
X156590952Y-121705714D01*
X156781428Y-121705714D01*
X156876666Y-121753333D01*
X156924285Y-121848571D01*
X156924285Y-121943809D01*
X156448095Y-122039047D01*
X157257619Y-121705714D02*
X157495714Y-122372380D01*
X157733809Y-121705714D01*
X158495714Y-122324761D02*
X158400476Y-122372380D01*
X158210000Y-122372380D01*
X158114761Y-122324761D01*
X158067142Y-122229523D01*
X158067142Y-121848571D01*
X158114761Y-121753333D01*
X158210000Y-121705714D01*
X158400476Y-121705714D01*
X158495714Y-121753333D01*
X158543333Y-121848571D01*
X158543333Y-121943809D01*
X158067142Y-122039047D01*
X158971904Y-121705714D02*
X158971904Y-122372380D01*
X158971904Y-121800952D02*
X159019523Y-121753333D01*
X159114761Y-121705714D01*
X159257619Y-121705714D01*
X159352857Y-121753333D01*
X159400476Y-121848571D01*
X159400476Y-122372380D01*
X160638571Y-122372380D02*
X160638571Y-121372380D01*
X161019523Y-121372380D01*
X161114761Y-121420000D01*
X161162380Y-121467619D01*
X161210000Y-121562857D01*
X161210000Y-121705714D01*
X161162380Y-121800952D01*
X161114761Y-121848571D01*
X161019523Y-121896190D01*
X160638571Y-121896190D01*
X162067142Y-122372380D02*
X162067142Y-121848571D01*
X162019523Y-121753333D01*
X161924285Y-121705714D01*
X161733809Y-121705714D01*
X161638571Y-121753333D01*
X162067142Y-122324761D02*
X161971904Y-122372380D01*
X161733809Y-122372380D01*
X161638571Y-122324761D01*
X161590952Y-122229523D01*
X161590952Y-122134285D01*
X161638571Y-122039047D01*
X161733809Y-121991428D01*
X161971904Y-121991428D01*
X162067142Y-121943809D01*
X162543333Y-122372380D02*
X162543333Y-121705714D01*
X162543333Y-121896190D02*
X162590952Y-121800952D01*
X162638571Y-121753333D01*
X162733809Y-121705714D01*
X162829047Y-121705714D01*
X163162380Y-122372380D02*
X163162380Y-121372380D01*
X163257619Y-121991428D02*
X163543333Y-122372380D01*
X163543333Y-121705714D02*
X163162380Y-122086666D01*
X164352857Y-122324761D02*
X164257619Y-122372380D01*
X164067142Y-122372380D01*
X163971904Y-122324761D01*
X163924285Y-122229523D01*
X163924285Y-121848571D01*
X163971904Y-121753333D01*
X164067142Y-121705714D01*
X164257619Y-121705714D01*
X164352857Y-121753333D01*
X164400476Y-121848571D01*
X164400476Y-121943809D01*
X163924285Y-122039047D01*
X164829047Y-122372380D02*
X164829047Y-121705714D01*
X164829047Y-121896190D02*
X164876666Y-121800952D01*
X164924285Y-121753333D01*
X165019523Y-121705714D01*
X165114761Y-121705714D01*
D11*
X144373619Y-121606904D02*
X144526000Y-121606904D01*
X144602190Y-121568809D01*
X144640285Y-121530714D01*
X144716476Y-121416428D01*
X144754571Y-121264047D01*
X144754571Y-120959285D01*
X144716476Y-120883095D01*
X144678380Y-120845000D01*
X144602190Y-120806904D01*
X144449809Y-120806904D01*
X144373619Y-120845000D01*
X144335523Y-120883095D01*
X144297428Y-120959285D01*
X144297428Y-121149761D01*
X144335523Y-121225952D01*
X144373619Y-121264047D01*
X144449809Y-121302142D01*
X144602190Y-121302142D01*
X144678380Y-121264047D01*
X144716476Y-121225952D01*
X144754571Y-121149761D01*
X170027619Y-121773904D02*
X169570476Y-121773904D01*
X169799047Y-121773904D02*
X169799047Y-120973904D01*
X169722857Y-121088190D01*
X169646666Y-121164380D01*
X169570476Y-121202476D01*
X170522857Y-120973904D02*
X170599047Y-120973904D01*
X170675238Y-121012000D01*
X170713333Y-121050095D01*
X170751428Y-121126285D01*
X170789523Y-121278666D01*
X170789523Y-121469142D01*
X170751428Y-121621523D01*
X170713333Y-121697714D01*
X170675238Y-121735809D01*
X170599047Y-121773904D01*
X170522857Y-121773904D01*
X170446666Y-121735809D01*
X170408571Y-121697714D01*
X170370476Y-121621523D01*
X170332380Y-121469142D01*
X170332380Y-121278666D01*
X170370476Y-121126285D01*
X170408571Y-121050095D01*
X170446666Y-121012000D01*
X170522857Y-120973904D01*
X170027619Y-110089904D02*
X169570476Y-110089904D01*
X169799047Y-110089904D02*
X169799047Y-109289904D01*
X169722857Y-109404190D01*
X169646666Y-109480380D01*
X169570476Y-109518476D01*
X170484761Y-109632761D02*
X170408571Y-109594666D01*
X170370476Y-109556571D01*
X170332380Y-109480380D01*
X170332380Y-109442285D01*
X170370476Y-109366095D01*
X170408571Y-109328000D01*
X170484761Y-109289904D01*
X170637142Y-109289904D01*
X170713333Y-109328000D01*
X170751428Y-109366095D01*
X170789523Y-109442285D01*
X170789523Y-109480380D01*
X170751428Y-109556571D01*
X170713333Y-109594666D01*
X170637142Y-109632761D01*
X170484761Y-109632761D01*
X170408571Y-109670857D01*
X170370476Y-109708952D01*
X170332380Y-109785142D01*
X170332380Y-109937523D01*
X170370476Y-110013714D01*
X170408571Y-110051809D01*
X170484761Y-110089904D01*
X170637142Y-110089904D01*
X170713333Y-110051809D01*
X170751428Y-110013714D01*
X170789523Y-109937523D01*
X170789523Y-109785142D01*
X170751428Y-109708952D01*
X170713333Y-109670857D01*
X170637142Y-109632761D01*
X170027619Y-97643904D02*
X169570476Y-97643904D01*
X169799047Y-97643904D02*
X169799047Y-96843904D01*
X169722857Y-96958190D01*
X169646666Y-97034380D01*
X169570476Y-97072476D01*
X170713333Y-97110571D02*
X170713333Y-97643904D01*
X170522857Y-96805809D02*
X170332380Y-97377238D01*
X170827619Y-97377238D01*
X170484809Y-107346761D02*
X170408619Y-107308666D01*
X170370523Y-107270571D01*
X170332428Y-107194380D01*
X170332428Y-107156285D01*
X170370523Y-107080095D01*
X170408619Y-107042000D01*
X170484809Y-107003904D01*
X170637190Y-107003904D01*
X170713380Y-107042000D01*
X170751476Y-107080095D01*
X170789571Y-107156285D01*
X170789571Y-107194380D01*
X170751476Y-107270571D01*
X170713380Y-107308666D01*
X170637190Y-107346761D01*
X170484809Y-107346761D01*
X170408619Y-107384857D01*
X170370523Y-107422952D01*
X170332428Y-107499142D01*
X170332428Y-107651523D01*
X170370523Y-107727714D01*
X170408619Y-107765809D01*
X170484809Y-107803904D01*
X170637190Y-107803904D01*
X170713380Y-107765809D01*
X170751476Y-107727714D01*
X170789571Y-107651523D01*
X170789571Y-107499142D01*
X170751476Y-107422952D01*
X170713380Y-107384857D01*
X170637190Y-107346761D01*
X144627571Y-110216904D02*
X144170428Y-110216904D01*
X144399000Y-110216904D02*
X144399000Y-109416904D01*
X144322809Y-109531190D01*
X144246619Y-109607380D01*
X144170428Y-109645476D01*
X144386333Y-106876904D02*
X144919666Y-106876904D01*
X144576809Y-107676904D01*
X144754571Y-98659904D02*
X144297428Y-98659904D01*
X144526000Y-98659904D02*
X144526000Y-97859904D01*
X144449809Y-97974190D01*
X144373619Y-98050380D01*
X144297428Y-98088476D01*
X169900619Y-82149904D02*
X169443476Y-82149904D01*
X169672047Y-82149904D02*
X169672047Y-81349904D01*
X169595857Y-81464190D01*
X169519666Y-81540380D01*
X169443476Y-81578476D01*
X170586333Y-81349904D02*
X170433952Y-81349904D01*
X170357761Y-81388000D01*
X170319666Y-81426095D01*
X170243476Y-81540380D01*
X170205380Y-81692761D01*
X170205380Y-81997523D01*
X170243476Y-82073714D01*
X170281571Y-82111809D01*
X170357761Y-82149904D01*
X170510142Y-82149904D01*
X170586333Y-82111809D01*
X170624428Y-82073714D01*
X170662523Y-81997523D01*
X170662523Y-81807047D01*
X170624428Y-81730857D01*
X170586333Y-81692761D01*
X170510142Y-81654666D01*
X170357761Y-81654666D01*
X170281571Y-81692761D01*
X170243476Y-81730857D01*
X170205380Y-81807047D01*
X170281619Y-92690904D02*
X170434000Y-92690904D01*
X170510190Y-92652809D01*
X170548285Y-92614714D01*
X170624476Y-92500428D01*
X170662571Y-92348047D01*
X170662571Y-92043285D01*
X170624476Y-91967095D01*
X170586380Y-91929000D01*
X170510190Y-91890904D01*
X170357809Y-91890904D01*
X170281619Y-91929000D01*
X170243523Y-91967095D01*
X170205428Y-92043285D01*
X170205428Y-92233761D01*
X170243523Y-92309952D01*
X170281619Y-92348047D01*
X170357809Y-92386142D01*
X170510190Y-92386142D01*
X170586380Y-92348047D01*
X170624476Y-92309952D01*
X170662571Y-92233761D01*
X144322809Y-92233761D02*
X144246619Y-92195666D01*
X144208523Y-92157571D01*
X144170428Y-92081380D01*
X144170428Y-92043285D01*
X144208523Y-91967095D01*
X144246619Y-91929000D01*
X144322809Y-91890904D01*
X144475190Y-91890904D01*
X144551380Y-91929000D01*
X144589476Y-91967095D01*
X144627571Y-92043285D01*
X144627571Y-92081380D01*
X144589476Y-92157571D01*
X144551380Y-92195666D01*
X144475190Y-92233761D01*
X144322809Y-92233761D01*
X144246619Y-92271857D01*
X144208523Y-92309952D01*
X144170428Y-92386142D01*
X144170428Y-92538523D01*
X144208523Y-92614714D01*
X144246619Y-92652809D01*
X144322809Y-92690904D01*
X144475190Y-92690904D01*
X144551380Y-92652809D01*
X144589476Y-92614714D01*
X144627571Y-92538523D01*
X144627571Y-92386142D01*
X144589476Y-92309952D01*
X144551380Y-92271857D01*
X144475190Y-92233761D01*
X144754571Y-82276904D02*
X144297428Y-82276904D01*
X144526000Y-82276904D02*
X144526000Y-81476904D01*
X144449809Y-81591190D01*
X144373619Y-81667380D01*
X144297428Y-81705476D01*
D12*
%TO.C,GPS*%
X163080000Y-120670000D02*
X163080000Y-110470000D01*
X163080000Y-110470000D02*
X152580000Y-110470000D01*
X151880000Y-110770000D02*
X151880000Y-120670000D01*
X151880000Y-120670000D02*
X163080000Y-120670000D01*
X152580000Y-110470000D02*
X151880000Y-110470000D01*
X151880000Y-110470000D02*
X151880000Y-110770000D01*
D13*
X152480000Y-109870000D02*
G75*
G03*
X152480000Y-109870000I-200000J0D01*
G01*
D12*
%TO.C,uC*%
X153505000Y-107480000D02*
X153505000Y-99060000D01*
X161455000Y-107480000D02*
X153505000Y-107480000D01*
X161455000Y-98260000D02*
X161455000Y-107480000D01*
X154305000Y-98260000D02*
X161455000Y-98260000D01*
X153505000Y-99060000D02*
X154305000Y-98260000D01*
D14*
X153621421Y-98170000D02*
G75*
G03*
X153621421Y-98170000I-141421J0D01*
G01*
D12*
%TO.C,LORA*%
X149380000Y-78260000D02*
X165580000Y-78260000D01*
X165580000Y-78260000D02*
X165580000Y-78660000D01*
X149380000Y-94060000D02*
X149380000Y-94460000D01*
X149380000Y-94460000D02*
X165580000Y-94460000D01*
X165580000Y-94460000D02*
X165580000Y-94060000D01*
X149380000Y-78260000D02*
X149380000Y-78610000D01*
X149380000Y-78610000D02*
X148480000Y-78610000D01*
%TO.C,J6*%
X174050000Y-120015000D02*
X173480000Y-120015000D01*
X171960000Y-120015000D02*
X171390000Y-120015000D01*
X174050000Y-120015000D02*
X174050000Y-109795000D01*
X174050000Y-109795000D02*
X173027530Y-109795000D01*
X172412470Y-109795000D02*
X171390000Y-109795000D01*
X171390000Y-120015000D02*
X171390000Y-109795000D01*
X171390000Y-121410000D02*
X171390000Y-120650000D01*
X172720000Y-121410000D02*
X171390000Y-121410000D01*
%TO.C,J5*%
X140910000Y-111125000D02*
X141480000Y-111125000D01*
X143000000Y-111125000D02*
X143570000Y-111125000D01*
X140910000Y-111125000D02*
X140910000Y-121345000D01*
X140910000Y-121345000D02*
X141932470Y-121345000D01*
X142547530Y-121345000D02*
X143570000Y-121345000D01*
X143570000Y-111125000D02*
X143570000Y-121345000D01*
X143570000Y-109730000D02*
X143570000Y-110490000D01*
X142240000Y-109730000D02*
X143570000Y-109730000D01*
%TO.C,J4*%
X174050000Y-106045000D02*
X173480000Y-106045000D01*
X171960000Y-106045000D02*
X171390000Y-106045000D01*
X174050000Y-106045000D02*
X174050000Y-98365000D01*
X174050000Y-98365000D02*
X173027530Y-98365000D01*
X172412470Y-98365000D02*
X171390000Y-98365000D01*
X171390000Y-106045000D02*
X171390000Y-98365000D01*
X171390000Y-107440000D02*
X171390000Y-106680000D01*
X172720000Y-107440000D02*
X171390000Y-107440000D01*
%TO.C,J3*%
X140910000Y-99695000D02*
X141480000Y-99695000D01*
X143000000Y-99695000D02*
X143570000Y-99695000D01*
X140910000Y-99695000D02*
X140910000Y-107375000D01*
X140910000Y-107375000D02*
X141932470Y-107375000D01*
X142547530Y-107375000D02*
X143570000Y-107375000D01*
X143570000Y-99695000D02*
X143570000Y-107375000D01*
X143570000Y-98300000D02*
X143570000Y-99060000D01*
X142240000Y-98300000D02*
X143570000Y-98300000D01*
%TO.C,J2*%
X174050000Y-90805000D02*
X173480000Y-90805000D01*
X171960000Y-90805000D02*
X171390000Y-90805000D01*
X174050000Y-90805000D02*
X174050000Y-81855000D01*
X174050000Y-81855000D02*
X173027530Y-81855000D01*
X172412470Y-81855000D02*
X171390000Y-81855000D01*
X171390000Y-90805000D02*
X171390000Y-81855000D01*
X171390000Y-92200000D02*
X171390000Y-91440000D01*
X172720000Y-92200000D02*
X171390000Y-92200000D01*
%TO.C,J1*%
X140910000Y-83185000D02*
X141480000Y-83185000D01*
X143000000Y-83185000D02*
X143570000Y-83185000D01*
X140910000Y-83185000D02*
X140910000Y-92135000D01*
X140910000Y-92135000D02*
X141932470Y-92135000D01*
X142547530Y-92135000D02*
X143570000Y-92135000D01*
X143570000Y-83185000D02*
X143570000Y-92135000D01*
X143570000Y-81790000D02*
X143570000Y-82550000D01*
X142240000Y-81790000D02*
X143570000Y-81790000D01*
%TO.C,GPS*%
D11*
X156765714Y-109101000D02*
X156670476Y-109053380D01*
X156527619Y-109053380D01*
X156384761Y-109101000D01*
X156289523Y-109196238D01*
X156241904Y-109291476D01*
X156194285Y-109481952D01*
X156194285Y-109624809D01*
X156241904Y-109815285D01*
X156289523Y-109910523D01*
X156384761Y-110005761D01*
X156527619Y-110053380D01*
X156622857Y-110053380D01*
X156765714Y-110005761D01*
X156813333Y-109958142D01*
X156813333Y-109624809D01*
X156622857Y-109624809D01*
X157241904Y-110053380D02*
X157241904Y-109053380D01*
X157622857Y-109053380D01*
X157718095Y-109101000D01*
X157765714Y-109148619D01*
X157813333Y-109243857D01*
X157813333Y-109386714D01*
X157765714Y-109481952D01*
X157718095Y-109529571D01*
X157622857Y-109577190D01*
X157241904Y-109577190D01*
X158194285Y-110005761D02*
X158337142Y-110053380D01*
X158575238Y-110053380D01*
X158670476Y-110005761D01*
X158718095Y-109958142D01*
X158765714Y-109862904D01*
X158765714Y-109767666D01*
X158718095Y-109672428D01*
X158670476Y-109624809D01*
X158575238Y-109577190D01*
X158384761Y-109529571D01*
X158289523Y-109481952D01*
X158241904Y-109434333D01*
X158194285Y-109339095D01*
X158194285Y-109243857D01*
X158241904Y-109148619D01*
X158289523Y-109101000D01*
X158384761Y-109053380D01*
X158622857Y-109053380D01*
X158765714Y-109101000D01*
%TO.C,uC*%
X157194285Y-97194714D02*
X157194285Y-97861380D01*
X156765714Y-97194714D02*
X156765714Y-97718523D01*
X156813333Y-97813761D01*
X156908571Y-97861380D01*
X157051428Y-97861380D01*
X157146666Y-97813761D01*
X157194285Y-97766142D01*
X158241904Y-97766142D02*
X158194285Y-97813761D01*
X158051428Y-97861380D01*
X157956190Y-97861380D01*
X157813333Y-97813761D01*
X157718095Y-97718523D01*
X157670476Y-97623285D01*
X157622857Y-97432809D01*
X157622857Y-97289952D01*
X157670476Y-97099476D01*
X157718095Y-97004238D01*
X157813333Y-96909000D01*
X157956190Y-96861380D01*
X158051428Y-96861380D01*
X158194285Y-96909000D01*
X158241904Y-96956619D01*
%TO.C,LORA*%
X156337142Y-77668380D02*
X155860952Y-77668380D01*
X155860952Y-76668380D01*
X156860952Y-76668380D02*
X157051428Y-76668380D01*
X157146666Y-76716000D01*
X157241904Y-76811238D01*
X157289523Y-77001714D01*
X157289523Y-77335047D01*
X157241904Y-77525523D01*
X157146666Y-77620761D01*
X157051428Y-77668380D01*
X156860952Y-77668380D01*
X156765714Y-77620761D01*
X156670476Y-77525523D01*
X156622857Y-77335047D01*
X156622857Y-77001714D01*
X156670476Y-76811238D01*
X156765714Y-76716000D01*
X156860952Y-76668380D01*
X158289523Y-77668380D02*
X157956190Y-77192190D01*
X157718095Y-77668380D02*
X157718095Y-76668380D01*
X158099047Y-76668380D01*
X158194285Y-76716000D01*
X158241904Y-76763619D01*
X158289523Y-76858857D01*
X158289523Y-77001714D01*
X158241904Y-77096952D01*
X158194285Y-77144571D01*
X158099047Y-77192190D01*
X157718095Y-77192190D01*
X158670476Y-77382666D02*
X159146666Y-77382666D01*
X158575238Y-77668380D02*
X158908571Y-76668380D01*
X159241904Y-77668380D01*
%TD*%
M02*
