%TF.GenerationSoftware,KiCad,Pcbnew,(5.1.10)-1*%
%TF.CreationDate,2021-12-23T09:49:10-08:00*%
%TF.ProjectId,ats-remote,6174732d-7265-46d6-9f74-652e6b696361,rev?*%
%TF.SameCoordinates,Original*%
%TF.FileFunction,Soldermask,Bot*%
%TF.FilePolarity,Negative*%
%FSLAX46Y46*%
G04 Gerber Fmt 4.6, Leading zero omitted, Abs format (unit mm)*
G04 Created by KiCad (PCBNEW (5.1.10)-1) date 2021-12-23 09:49:10*
%MOMM*%
%LPD*%
G01*
G04 APERTURE LIST*
%ADD10O,1.000000X1.000000*%
%ADD11R,1.000000X1.000000*%
G04 APERTURE END LIST*
D10*
%TO.C,J6*%
X172720000Y-110490000D03*
X172720000Y-111760000D03*
X172720000Y-113030000D03*
X172720000Y-114300000D03*
X172720000Y-115570000D03*
X172720000Y-116840000D03*
X172720000Y-118110000D03*
X172720000Y-119380000D03*
D11*
X172720000Y-120650000D03*
%TD*%
D10*
%TO.C,J5*%
X142240000Y-120650000D03*
X142240000Y-119380000D03*
X142240000Y-118110000D03*
X142240000Y-116840000D03*
X142240000Y-115570000D03*
X142240000Y-114300000D03*
X142240000Y-113030000D03*
X142240000Y-111760000D03*
D11*
X142240000Y-110490000D03*
%TD*%
D10*
%TO.C,J4*%
X172720000Y-99060000D03*
X172720000Y-100330000D03*
X172720000Y-101600000D03*
X172720000Y-102870000D03*
X172720000Y-104140000D03*
X172720000Y-105410000D03*
D11*
X172720000Y-106680000D03*
%TD*%
D10*
%TO.C,J3*%
X142240000Y-106680000D03*
X142240000Y-105410000D03*
X142240000Y-104140000D03*
X142240000Y-102870000D03*
X142240000Y-101600000D03*
X142240000Y-100330000D03*
D11*
X142240000Y-99060000D03*
%TD*%
D10*
%TO.C,J2*%
X172720000Y-82550000D03*
X172720000Y-83820000D03*
X172720000Y-85090000D03*
X172720000Y-86360000D03*
X172720000Y-87630000D03*
X172720000Y-88900000D03*
X172720000Y-90170000D03*
D11*
X172720000Y-91440000D03*
%TD*%
D10*
%TO.C,J1*%
X142240000Y-91440000D03*
X142240000Y-90170000D03*
X142240000Y-88900000D03*
X142240000Y-87630000D03*
X142240000Y-86360000D03*
X142240000Y-85090000D03*
X142240000Y-83820000D03*
D11*
X142240000Y-82550000D03*
%TD*%
M02*
